<?xml version="1.0" standalone="no"?>
<!DOCTYPE svg PUBLIC "-//W3C//DTD SVG 20010904//EN"
 "http://www.w3.org/TR/2001/REC-SVG-20010904/DTD/svg10.dtd">
<svg version="1.0" xmlns="http://www.w3.org/2000/svg"
 width="512.000000pt" height="512.000000pt" viewBox="0 0 512.000000 512.000000"
 preserveAspectRatio="xMidYMid meet">
<metadata>
Created by potrace 1.11, written by Peter Selinger 2001-2013
</metadata>
<g transform="translate(0.000000,512.000000) scale(0.100000,-0.100000)"
fill="#000000" stroke="none">
<path d="M1020 4303 c-100 -34 -169 -106 -204 -207 -13 -41 -16 -95 -16 -313
l0 -263 1841 0 1840 0 -3 283 c-3 277 -3 283 -28 332 -31 64 -91 124 -155 155
l-50 25 -1590 2 c-1423 2 -1595 0 -1635 -14z"/>
<path d="M802 2118 c3 -1064 5 -1247 18 -1273 49 -102 121 -166 214 -191 42
-11 257 -14 1188 -14 l1137 0 3 523 3 522 25 50 c36 74 109 140 183 164 58 20
83 21 484 21 l423 0 0 720 0 720 -1840 0 -1841 0 3 -1242z"/>
<path d="M3615 1746 c-40 -18 -73 -56 -85 -97 -6 -20 -10 -233 -10 -519 l0
-485 28 30 c28 30 233 268 451 525 63 74 119 140 125 145 7 6 29 32 51 59 22
27 49 59 60 71 11 11 38 42 60 69 22 27 47 56 55 65 35 36 120 139 120 145 0
3 -186 6 -412 6 -322 -1 -420 -4 -443 -14z"/>
</g>
</svg>
